# xmcd
#
# Track frame offsets: 
#        150
#        13082
#        27055
#        46690
#        67604
#        85909
#        103978
#        132556
#        152158
#        170132
#        193178
#        217863
#        239274
#        254634
#        272456
#        287979
#        304584
#
# Disc length: 4606 seconds
#
# Revision: 0
# Processed by: cddbd v1.5.2PL0 Copyright (c) Steve Scherf et al.
# Submitted via: ExactAudioCopyFreeDBPlugin 1.0
#
DISCID=ee11fc11
DTITLE=Robin Trower - Compendium 1987 - 2013 [CD 1)
DYEAR=2013
DGENRE=Blues
TTITLE0=Inside Out
TTITLE1=Freefall
TTITLE2=Too Much Joy
TTITLE3=Seven Moons
TTITLE4=The Playful Heart
TTITLE5=Please Tell Me
TTITLE6=The Turning
TTITLE7=Tear It Up
TTITLE8=Passion
TTITLE9=The Last Door
TTITLE10=The Thrill Is Gone
TTITLE11=If Forever
TTITLE12=Not Inside – Outside
TTITLE13=Looking For A True Love
TTITLE14=Crossroads
TTITLE15=Prisoner Of Love
TTITLE16=Go My Way
EXTD=
EXTT0=
EXTT1=
EXTT2=
EXTT3=
EXTT4=
EXTT5=
EXTT6=
EXTT7=
EXTT8=
EXTT9=
EXTT10=
EXTT11=
EXTT12=
EXTT13=
EXTT14=
EXTT15=
EXTT16=
PLAYORDER=
